<svg width="0" height="0" class="hidden">
  <symbol fill="none" xmlns="http://www.w3.org/2000/svg" viewBox="0 0 60 60" id="LOGO">
    <path d="M30 54C16.7673 54 6 43.2327 6 30C6 16.7673 16.7673 6 30 6C43.2327 6 54 16.7673 54 30C54 43.2327 43.2327 54 30 54Z" stroke="white" stroke-width="2"></path>
    <path d="M43.095 30C43.095 22.7662 37.2325 16.905 30 16.905C22.7675 16.905 16.905 22.7662 16.905 30C16.905 37.2337 22.7663 43.095 30 43.095C37.2338 43.095 43.095 37.2337 43.095 30Z" fill="white"></path>
    <path d="M30 17.5C23.1762 17.6763 17.6763 23.1775 17.5 30H30V17.5ZM30 42.5025C36.8237 42.3237 42.3237 36.8225 42.5 30H30V42.5025Z" fill="#214B64"></path>
    <path d="M19.4625 16.4925C19.375 15.8762 19.0025 15.3562 18.4312 15.0975C17.8587 14.8375 17.1937 14.935 16.6887 15.29C16.6475 15.3212 16.6087 15.3562 16.5712 15.3875C16.655 15.1012 16.68 14.8112 16.6087 14.5225C16.5412 14.2362 16.3912 13.975 16.18 13.77C15.7525 13.3512 15.1025 13.215 14.5425 13.4237C14.28 13.5237 14.0425 13.6937 13.8662 13.9112C13.7662 14.0375 13.6675 14.16 13.565 14.2887C13.0412 14.9412 12.5175 15.595 11.995 16.2475C11.545 16.81 11.0975 17.3725 10.6462 17.9337C10.6162 17.97 10.5875 18.0112 10.5587 18.0462C10.5562 18.0462 10.6162 18.0925 10.6212 18.095C10.7962 18.2362 10.9687 18.375 11.1437 18.5137C11.8037 19.0437 12.4612 19.5725 13.1225 20.1C13.7737 20.6237 14.4287 21.1462 15.0825 21.6687C15.2487 21.8037 15.4162 21.9362 15.5825 22.0675C15.5875 22.0762 15.6275 22.1137 15.6337 22.105C15.6675 22.0637 15.7 22.02 15.7325 21.9812C16.1812 21.42 16.6312 20.8612 17.0775 20.3C17.615 19.6262 18.1525 18.9587 18.69 18.2862C18.9675 17.9425 19.2737 17.6125 19.405 17.1812C19.4737 16.955 19.4862 16.7237 19.4625 16.4925ZM13.6787 18.385C13.4062 18.17 13.135 17.95 12.8637 17.7325C12.76 17.65 12.6562 17.5687 12.5525 17.4837C12.5487 17.4812 12.66 17.3475 12.6662 17.34C13.1712 16.705 13.6787 16.0737 14.185 15.4412C14.3187 15.2775 14.4387 15.0975 14.6437 15.015C14.9225 14.8975 15.2525 14.9712 15.4562 15.195C15.6187 15.375 15.6737 15.6212 15.6212 15.8575C15.56 16.0687 15.4112 16.2212 15.28 16.3875C15.015 16.7225 14.7462 17.055 14.4812 17.3875C14.2125 17.7175 13.9437 18.0487 13.6787 18.385ZM17.6925 17.6075C17.52 17.8212 17.35 18.035 17.1775 18.25C16.7062 18.84 16.2337 19.43 15.7625 20.0175C15.76 20.02 15.7487 20.04 15.7437 20.0375C15.7187 20.0175 15.6962 19.9962 15.6725 19.9775C15.5425 19.875 15.415 19.7737 15.2862 19.6712C15.0637 19.4912 14.84 19.3112 14.6187 19.1337C15.0462 18.5987 15.4762 18.065 15.9025 17.53C16.1125 17.2675 16.32 17.0087 16.5287 16.7462C16.6775 16.5612 16.8662 16.4275 17.1137 16.42C17.4112 16.4125 17.6712 16.5837 17.7975 16.85C17.9037 17.11 17.8675 17.3887 17.6925 17.6075ZM45.6375 13.7625L44.4362 12.6475L40.5262 17.7825L41.7287 18.8975L46.015 16.935L43.1612 20.6875L43.9875 22.105L49.8525 19.4125L49.025 17.9925L45.6387 19.545L48.045 16.3875L46.9912 15.0737L43.385 16.7287L45.6375 13.7625ZM28.0875 9.63625L29.46 13.9687H30.5412L31.9112 9.63625L32.055 13.9687L33.5712 14.2112L33.355 7.71125L31.4075 7.46625L30.0012 12.0437L28.5925 7.46625L26.645 7.71125L26.4287 14.2112L27.9437 13.9687L28.0875 9.63625Z" fill="#CFD8DC"></path>
  </symbol>
  <symbol fill="none" xmlns="http://www.w3.org/2000/svg" viewBox="0 0 30 30" id="music">
    <g clip-path="url(#clip0_8_113)">
      <path d="M25.5 0H4.5C2.01472 0 0 2.01472 0 4.5V25.5C0 27.9853 2.01472 30 4.5 30H25.5C27.9853 30 30 27.9853 30 25.5V4.5C30 2.01472 27.9853 0 25.5 0Z" fill="#832BC1"></path>
      <path d="M17.168 17.2267C16.6992 16.7579 15.9375 16.465 15 16.465C14.0625 16.465 13.3008 16.7579 12.8321 17.2267C12.5977 17.5196 12.4805 17.754 12.4219 18.1056C12.3633 18.8087 12.4219 19.3946 12.4805 20.3907C12.6503 22.1015 12.9045 23.8028 13.2422 25.4884C13.418 26.0157 14.0625 26.5431 15 26.5431C15.9961 26.5431 16.5821 26.0157 16.7578 25.4884C17.2062 23.0501 17.4804 20.5829 17.5782 18.1056C17.5196 17.754 17.4024 17.5196 17.168 17.2267ZM12.5391 13.0079C12.5391 13.6606 12.7984 14.2866 13.2599 14.7481C13.7214 15.2096 14.3473 15.4689 15 15.4689C15.6527 15.4689 16.2787 15.2096 16.7402 14.7481C17.2017 14.2866 17.461 13.6606 17.461 13.0079C17.461 12.3552 17.2017 11.7293 16.7402 11.2678C16.2787 10.8063 15.6527 10.547 15 10.547C14.3473 10.547 13.7214 10.8063 13.2599 11.2678C12.7984 11.7293 12.5391 12.3552 12.5391 13.0079ZM15 3.33996C12.5033 3.32824 10.0834 4.20263 8.17088 5.80755C6.25832 7.41247 4.97714 9.64385 4.55529 12.1047C4.13343 14.5655 4.59825 17.0962 5.86706 19.2465C7.13586 21.3968 9.12636 23.0273 11.4844 23.8478C11.6016 23.8478 11.7188 23.7892 11.7188 23.672L11.543 22.6173C11.543 22.4415 11.4258 22.3829 11.3086 22.3243C9.37381 21.4767 7.78965 19.9891 6.82225 18.1113C5.85485 16.2335 5.56316 14.08 5.99616 12.0125C6.42917 9.94501 7.5605 8.08954 9.20011 6.75775C10.8397 5.42597 12.8877 4.69902 15 4.69902C17.1124 4.69902 19.1603 5.42597 20.8 6.75775C22.4396 8.08954 23.5709 9.94501 24.0039 12.0125C24.4369 14.08 24.1452 16.2335 23.1778 18.1113C22.2104 19.9891 20.6262 21.4767 18.6914 22.3243C18.5742 22.3829 18.4571 22.4415 18.4571 22.6173L18.2813 23.672C18.2813 23.7892 18.3985 23.8478 18.5157 23.8478C20.8737 23.0273 22.8642 21.3968 24.133 19.2465C25.4018 17.0962 25.8666 14.5655 25.4448 12.1047C25.0229 9.64385 23.7417 7.41247 21.8292 5.80755C19.9166 4.20263 17.4967 3.32824 15 3.33996ZM14.7657 8.14465C15.9308 8.10281 17.0811 8.41665 18.0635 9.04442C19.046 9.67219 19.8141 10.5842 20.2657 11.659C20.7172 12.7339 20.8309 13.9208 20.5916 15.0619C20.3523 16.203 19.7712 17.2441 18.9258 18.047C18.8086 18.1056 18.75 18.2814 18.8086 18.3986L18.75 19.5704C18.75 19.6876 18.8672 19.8048 18.9844 19.6876C20.2323 18.8262 21.1712 17.5875 21.6632 16.1532C22.1552 14.7189 22.1744 13.1647 21.7179 11.7187C21.2615 10.2727 20.3535 9.0111 19.1272 8.11918C17.901 7.22727 16.4211 6.75199 14.9048 6.76314C13.3885 6.77429 11.9157 7.27127 10.7027 8.18113C9.48971 9.09098 8.60036 10.3658 8.16524 11.8183C7.73012 13.2709 7.77216 14.8247 8.28519 16.2516C8.79822 17.6785 9.75521 18.9033 11.0157 19.7462C11.1328 19.8048 11.25 19.6876 11.25 19.5704V18.3986C11.25 18.2814 11.1914 18.1056 11.0742 18.047C10.2285 17.2839 9.63153 16.2844 9.3608 15.1779C9.09007 14.0714 9.15805 12.9091 9.55594 11.8418C9.95383 10.7744 10.6633 9.85126 11.5922 9.19201C12.5212 8.53277 13.6268 8.16787 14.7657 8.14465Z" fill="white"></path>
    </g>
    <defs>
      <clipPath id="clip0_8_113">
        <rect width="30" height="30" fill="white"></rect>
      </clipPath>
    </defs>
  </symbol>
  <symbol fill="none" xmlns="http://www.w3.org/2000/svg" viewBox="0 0 30 30" id="soundcloud">
    <path d="M15 30C23.2843 30 30 23.2843 30 15C30 6.71573 23.2843 0 15 0C6.71573 0 0 6.71573 0 15C0 23.2843 6.71573 30 15 30Z" fill="#FF6A22"></path>
    <path d="M4.46728 18.4053C4.46006 18.454 4.4253 18.4887 4.38011 18.4887C4.33492 18.4887 4.30016 18.454 4.29321 18.4042L4.13464 17.2176L4.29321 16.0111C4.29989 15.9608 4.33465 15.9261 4.38011 15.9261C4.42503 15.9261 4.45979 15.9608 4.46728 16.0111L4.65605 17.2189L4.46728 18.4053ZM5.27506 19.1262C5.26757 19.1778 5.23014 19.2139 5.18388 19.2139C5.13896 19.2139 5.09965 19.1778 5.0935 19.1262L4.88012 17.2173L5.0935 15.2656C5.09992 15.2154 5.13896 15.1779 5.18388 15.1779C5.23014 15.1779 5.26757 15.2146 5.27506 15.2656L5.51785 17.2173L5.27506 19.1262ZM6.14675 19.4495C6.1406 19.5115 6.09407 19.5556 6.03819 19.5556C5.98043 19.5556 5.93471 19.5115 5.92909 19.4495L5.72668 17.2189L5.92909 14.9036C5.93417 14.8407 5.98043 14.7958 6.03819 14.7958C6.09407 14.7958 6.14033 14.8407 6.14675 14.9036L6.37643 17.2189L6.14675 19.4495ZM7.02699 19.5203C7.02058 19.5915 6.96496 19.6452 6.89891 19.6452C6.83126 19.6452 6.77591 19.5915 6.7703 19.5203L6.57912 17.2189L6.7703 14.8399C6.77591 14.7683 6.83126 14.7145 6.89891 14.7145C6.96496 14.7145 7.02058 14.7683 7.02699 14.8399L7.24384 17.2189L7.02699 19.5203ZM7.91205 19.5388C7.90751 19.6214 7.84306 19.6826 7.76686 19.6826C7.68825 19.6826 7.62594 19.6214 7.6206 19.5388L7.43984 17.2186L7.6206 15.0116C7.62621 14.9295 7.68825 14.8683 7.76686 14.8683C7.8444 14.8683 7.90751 14.9295 7.91205 15.0105L8.11687 17.2186L7.91205 19.5388ZM8.80567 19.5401V19.5388C8.80032 19.6302 8.72785 19.7024 8.64069 19.7024C8.55325 19.7024 8.48079 19.63 8.47571 19.5401L8.30698 17.22L8.47571 13.6292C8.48079 13.5378 8.55325 13.4656 8.64069 13.4656C8.72812 13.4656 8.80058 13.538 8.80567 13.6279L8.99685 17.22L8.80567 19.5401ZM9.6926 19.5388V19.5374C9.68725 19.6385 9.6073 19.719 9.50836 19.719C9.4113 19.719 9.33109 19.6385 9.32627 19.5374L9.16691 17.2323L9.32627 12.8201C9.33109 12.719 9.4113 12.6391 9.50836 12.6391C9.6073 12.6391 9.68725 12.719 9.6926 12.8201L9.87201 17.2323L9.6926 19.5388ZM10.6127 19.5032V19.5019C10.6087 19.6144 10.5202 19.7019 10.4113 19.7019C10.3025 19.7019 10.214 19.6144 10.21 19.5032L10.0621 17.2216C10.0621 17.2216 10.21 12.4417 10.21 12.4404C10.2143 12.3292 10.3025 12.2401 10.4113 12.2401C10.5202 12.2401 10.6089 12.3292 10.6127 12.4404L10.7798 17.2216L10.6127 19.5032ZM11.5274 19.488C11.5231 19.6104 11.4271 19.7064 11.3076 19.7064C11.1878 19.7064 11.0918 19.6104 11.0876 19.489L10.9496 17.221L11.0876 12.2802C11.0918 12.1572 11.1878 12.0615 11.3076 12.0615C11.4271 12.0615 11.5234 12.1572 11.5274 12.2802L11.6806 17.221L11.5274 19.488ZM12.448 19.4679V19.4666C12.4438 19.5989 12.3403 19.704 12.209 19.704C12.0796 19.704 11.974 19.5989 11.9716 19.4679L11.8448 17.2216L11.9702 12.407C11.974 12.2727 12.0793 12.169 12.209 12.169C12.3403 12.169 12.4438 12.2727 12.448 12.407L12.5903 17.2216L12.448 19.4679ZM13.3761 19.4545V19.4527C13.374 19.5968 13.2601 19.7078 13.1195 19.7078C12.9777 19.7078 12.8654 19.5968 12.8612 19.4545L12.7467 17.2213L12.8614 12.5829C12.8657 12.4391 12.978 12.3265 13.1197 12.3265C13.2604 12.3265 13.3743 12.4391 13.3764 12.5829L13.5061 17.2227L13.3761 19.4545ZM14.323 19.219L14.3115 19.4377C14.3101 19.5139 14.2781 19.5829 14.2291 19.6326C14.1789 19.6816 14.1099 19.7128 14.0369 19.7128C13.9518 19.7128 13.877 19.6738 13.8256 19.6123C13.7877 19.5677 13.7641 19.5099 13.7615 19.4492C13.7607 19.4465 13.7607 19.443 13.7607 19.4393C13.7607 19.4393 13.655 17.2237 13.655 17.22L13.7593 11.7537L13.7607 11.7013C13.7615 11.6056 13.8123 11.5203 13.8882 11.4714C13.9307 11.443 13.981 11.4265 14.0371 11.4265C14.0922 11.4265 14.1444 11.4436 14.1879 11.4738C14.262 11.5232 14.3104 11.6064 14.3117 11.7016L14.4278 17.2227L14.323 19.219ZM15.2431 19.4091V19.4064C15.2412 19.5679 15.1088 19.6995 14.9489 19.6995C14.7885 19.6995 14.6564 19.5679 14.6548 19.4078L14.5941 18.3302L14.5345 17.2237L14.6548 11.2326V11.2024C14.6551 11.1115 14.6979 11.0302 14.7639 10.9754C14.8144 10.9339 14.8794 10.9088 14.9489 10.9088C15.0043 10.9088 15.0556 10.924 15.0995 10.9497C15.1832 11.0021 15.2417 11.0949 15.2444 11.201L15.3746 17.2235L15.2431 19.4091ZM23.1933 19.7054C23.1933 19.7054 15.7912 19.7054 15.7835 19.7054C15.6236 19.689 15.4971 19.5618 15.4944 19.3979V10.9152C15.4971 10.7591 15.5508 10.6786 15.7519 10.6013C16.2709 10.4002 16.8586 10.2815 17.4627 10.2815C19.9266 10.2815 21.9457 12.1717 22.1599 14.5795C22.477 14.4472 22.8273 14.3717 23.1933 14.3717C24.6688 14.3717 25.8651 15.5686 25.8651 17.0451C25.8651 18.5214 24.6688 19.7054 23.1933 19.7054Z" fill="#F1F2F2"></path>
  </symbol>
  <symbol fill="none" xmlns="http://www.w3.org/2000/svg" viewBox="0 0 30 30" id="spotify">
    <g clip-path="url(#clip0_8_116)">
      <path d="M14.9999 0C6.71588 0 0 6.71569 0 14.9998C0 23.2847 6.71588 30 14.9999 30C23.2843 30 30 23.2847 30 14.9998C30 6.71569 23.2843 0 14.9999 0Z" fill="#1ED760"></path>
      <path d="M21.5494 21.3092C21.2839 21.7445 20.717 21.8809 20.2832 21.6156C16.814 19.4952 12.4473 19.0164 7.30465 20.191C6.80909 20.3046 6.31509 19.9941 6.2022 19.4987C6.08859 19.0032 6.39802 18.5092 6.89465 18.3961C12.5224 17.1097 17.3497 17.6633 21.2438 20.0428C21.678 20.308 21.8147 20.8752 21.5494 21.3092Z" fill="white"></path>
      <path d="M23.3571 17.2862C23.023 17.8283 22.3141 17.9984 21.7727 17.6655C17.8026 15.2251 11.7483 14.518 7.05115 15.9438C6.44215 16.1278 5.79873 15.7845 5.61366 15.1764C5.43019 14.5674 5.77368 13.9252 6.38177 13.74C11.7476 12.1116 18.4181 12.9003 22.9782 15.7026C23.5196 16.0361 23.6901 16.7453 23.3571 17.2862Z" fill="white"></path>
      <path d="M23.513 13.0974C18.7508 10.2692 10.8956 10.0092 6.34948 11.389C5.61926 11.6105 4.84726 11.1984 4.62621 10.4684C4.40498 9.73784 4.81656 8.96634 5.54711 8.74446C10.7659 7.1604 19.4412 7.46628 24.9235 10.7207C25.5804 11.1106 25.7955 11.9586 25.4064 12.6142C25.0169 13.2708 24.1681 13.4873 23.513 13.0974Z" fill="white"></path>
    </g>
    <defs>
      <clipPath id="clip0_8_116">
        <rect width="30" height="30" fill="white"></rect>
      </clipPath>
    </defs>
  </symbol>
</svg>